<?xml version="1.0" encoding="UTF-8"?>
<svg version="1.1" xmlns="http://www.w3.org/2000/svg" width="50" height="50">
<path d="M0 0 C3.63212287 1.47014497 6.54998481 3.66097517 9.625 6.0625 C9.625 5.4025 9.625 4.7425 9.625 4.0625 C11.605 4.0625 13.585 4.0625 15.625 4.0625 C15.46 5.09375 15.295 6.125 15.125 7.1875 C15.2057509 11.02003239 15.2057509 11.02003239 17.40625 12.7578125 C18.86729376 13.78157204 20.35743536 14.76518574 21.875 15.703125 C22.4525 16.15171875 23.03 16.6003125 23.625 17.0625 C23.625 18.0525 23.625 19.0425 23.625 20.0625 C22.635 20.0625 21.645 20.0625 20.625 20.0625 C20.625 28.6425 20.625 37.2225 20.625 46.0625 C15.675 46.0625 10.725 46.0625 5.625 46.0625 C5.625 40.1225 5.625 34.1825 5.625 28.0625 C1.665 28.0625 -2.295 28.0625 -6.375 28.0625 C-6.375 34.0025 -6.375 39.9425 -6.375 46.0625 C-11.325 46.0625 -16.275 46.0625 -21.375 46.0625 C-21.375 37.4825 -21.375 28.9025 -21.375 20.0625 C-22.365 20.0625 -23.355 20.0625 -24.375 20.0625 C-24.375 19.0725 -24.375 18.0825 -24.375 17.0625 C-22.89379883 15.59204102 -22.89379883 15.59204102 -20.83203125 14.06640625 C-20.08759766 13.50759766 -19.34316406 12.94878906 -18.57617188 12.37304688 C-17.78791016 11.79619141 -16.99964844 11.21933594 -16.1875 10.625 C-14.65207387 9.48083082 -13.11691115 8.33630808 -11.58203125 7.19140625 C-10.48810059 6.38521851 -10.48810059 6.38521851 -9.37207031 5.56274414 C-7.70207066 4.30820283 -6.08062467 2.98937052 -4.47265625 1.65625 C-2.375 0.0625 -2.375 0.0625 0 0 Z " fill="#FFFFFF" transform="translate(25.375,0.9375)"/>
</svg>
